<?xml version="1.0" encoding="UTF-8" standalone="no"?>
<svg
   xmlns:dc="http://purl.org/dc/elements/1.1/"
   xmlns:cc="http://creativecommons.org/ns#"
   xmlns:rdf="http://www.w3.org/1999/02/22-rdf-syntax-ns#"
   xmlns:svg="http://www.w3.org/2000/svg"
   xmlns="http://www.w3.org/2000/svg"
   xmlns:xlink="http://www.w3.org/1999/xlink"
   xmlns:sodipodi="http://sodipodi.sourceforge.net/DTD/sodipodi-0.dtd"
   xmlns:inkscape="http://www.inkscape.org/namespaces/inkscape"
   sodipodi:docname="front-v0-a1-p0.svg"
   inkscape:version="0.47 r22583"
   id="emoticon-front-view"
   height="250"
   width="250"
   version="1.1">
  <metadata
     id="metadata52">
    <rdf:RDF>
      <cc:Work
         rdf:about="">
        <dc:format>image/svg+xml</dc:format>
        <dc:type
           rdf:resource="http://purl.org/dc/dcmitype/StillImage" />
      </cc:Work>
    </rdf:RDF>
  </metadata>
  <sodipodi:namedview
     inkscape:guide-bbox="true"
     showguides="true"
     inkscape:current-layer="emoticon-front-view"
     inkscape:window-maximized="0"
     inkscape:window-y="24"
     inkscape:window-x="0"
     inkscape:cy="158.4334"
     inkscape:cx="127.08536"
     inkscape:zoom="1.888"
     showgrid="false"
     id="namedview50"
     inkscape:window-height="875"
     inkscape:window-width="1246"
     inkscape:pageshadow="2"
     inkscape:pageopacity="0"
     guidetolerance="10"
     gridtolerance="10"
     objecttolerance="10"
     borderopacity="1"
     bordercolor="#666666"
     pagecolor="#ffffff" />
  <defs
     id="defs4">
    <inkscape:perspective
       sodipodi:type="inkscape:persp3d"
       inkscape:vp_x="0 : 125 : 1"
       inkscape:vp_y="0 : 1000 : 0"
       inkscape:vp_z="250 : 125 : 1"
       inkscape:persp3d-origin="125 : 83.333333 : 1"
       id="perspective39" />
    <linearGradient
       id="linearGradient5745">
      <stop
         id="stop5747"
         offset="0"
         style="stop-color:#f4c815;stop-opacity:1" />
      <stop
         id="stop5749"
         offset="1"
         style="stop-color:#cc0000;stop-opacity:1" />
    </linearGradient>
    <linearGradient
       id="linearGradient2823">
      <stop
         id="stop2825"
         offset="0"
         style="stop-color:#000000;stop-opacity:1" />
      <stop
         id="stop2827"
         offset="1"
         style="stop-color:#662e91;stop-opacity:1" />
    </linearGradient>
    <clipPath
       id="clipPath2967">
      <use
         id="use2969"
         x="0"
         y="0"
         width="1"
         height="1"
         xlink:href="#path3622"
         transform="translate(-57.14,-22.86)" />
    </clipPath>
    <clipPath
       id="clipPath4022">
    <use
       id="use5959"
       x="0"
       y="0"
       width="250"
       height="250"
       xlink:href="#path3622"
       transform="matrix(-1,0,0,1,915.87,-3.77)" />
    </clipPath>
    <radialGradient
       spreadMethod="pad"
       gradientTransform="matrix(98.09029,121.52782,-104.45905,83.940949,1881.611,1722.6769)"
       gradientUnits="userSpaceOnUse"
       xlink:href="#linearGradient5745"
       id="radialGradient5694"
       fy="2.7052789"
       fx="-15.37231"
       r="1"
       cy="2.7052789"
       cx="-15.37231" />
    <linearGradient
       y2="606.46576"
       x2="138.57143"
       y1="488.07648"
       x1="107.14286"
       gradientTransform="translate(37.463072,-25.351165)"
       gradientUnits="userSpaceOnUse"
       id="irisGradient"
       xlink:href="#linearGradient2823"
       inkscape:collect="always" />
  </defs>
  <g
     id="head">
    <path
       style="fill:url(#radialGradient5694);fill-opacity:1;stroke:#000000;stroke-width:1;stroke-opacity:1"
       id="path164"
       d="M 37.09,139.48 C 36.86,191.41 78.01,227.96 128.48,227.96 L 128.48,227.96 C 178.93,227.96 221.33,185.84 219.84,133.93 L 219.84,133.93 C 217.93,66.69 154.28,28.46 127.68,22.78 L 127.68,22.78 C 99.08,30.59 37.44,65.52 37.09,139.48" />
    <g
       id="head-glare">
      <path
         style="fill:#f9a437;fill-opacity:1;stroke:none"
         id="path184"
         d="M 65.39,67.61 C 40.82,98 40.57,141.97 40.57,150.07 L 40.57,150.07 C 40.57,157.77 50.53,178.05 48.82,170.56 L 48.82,170.56 C 44.62,152.13 45.72,141.30 45.72,135.32 L 45.72,135.32 C 45.72,131.23 46.35,127.06 49.05,110.76 L 49.05,110.76 C 51.75,94.46 58.85,84.99 72.84,65.76 L 72.84,65.76 C 86.83,46.52 117.39,29.49 126.27,28.73 L 126.27,28.73 C 135.14,28 157.33,40.70 157.33,40.70 L 157.33,40.70 C 157.33,40.70 169.76,45.83 154.01,36.86 L 154.01,36.86 C 138.28,27.90 126.04,24.59 126.04,24.59 L 126.04,24.59 C 126.04,24.59 93.80,32.47 65.39,67.61" />
      <path
         style="fill:#ffe58f;fill-opacity:1;fill-rule:nonzero;stroke:none"
         id="path196"
         d="M 126.50,24.82 C 126.50,24.82 137.37,25.91 152.76,35.49 168,44.97 157.71,38.62 157.71,38.62 157.71,38.62 135.62,25.91 126.73,26.35 111.88,27.08 78,52.43 66.41,67.91 52.11,87.03 46.10,106.15 43.40,122.45 40.70,138.76 40.57,155.69 40.57,147.98 40.57,139.88 41.50,95.35 66.72,65.53 93.44,33.93 126.50,24.82 126.50,24.82" />
    </g>
  </g>
  <g
     style="stroke-width:4.36;stroke-miterlimit:4;stroke-dasharray:none"
     id="left-eye"
     transform="matrix(0.16,0,0,0.16,61.42,19.46)">
    <path
       style="fill:#ffffff;stroke:#000000;stroke-width:6.14;stroke-miterlimit:4;stroke-opacity:1;stroke-dasharray:none"
       sodipodi:nodetypes="cssss"
       id="path3622"
       d="m 257.99,465.04 c 40.67852,16.38015 66.68729,82.66919 32.36305,139.03038 C 251.90729,667.19919 163.23452,673.7847 118.02,601.6 90.794523,558.1347 106.26579,515.2945 129.46,494.63153 152.96645,473.69039 230.20017,453.84978 257.99,465.04 z" />
    <g
       style="stroke-width:4.36;stroke-miterlimit:4;stroke-dasharray:none"
       id="lens"
       clip-path="url(#clipPath2967)"
       transform="translate(57.14,22.86)">
      <g
         id="g4403">
        <path
           style="fill:url(#irisGradient);fill-opacity:1;stroke:#000000;stroke-width:6.14;stroke-miterlimit:4;stroke-opacity:1;stroke-dasharray:none"
           id="iris"
           d="M 230.32,521.30 C 230.32,536.26 224.47,551.12 214.42,561.70 204.37,572.28 190.26,578.44 176.03,578.44 161.82,578.44 147.70,572.28 137.66,561.70 127.60,551.12 121.75,536.26 121.75,521.30 121.75,506.34 127.60,491.47 137.66,480.89 147.70,470.31 161.82,464.15 176.03,464.15 190.26,464.15 204.37,470.31 214.42,480.89 224.47,491.47 230.32,506.34 230.32,521.30 Z" />
        <path
           style="fill:#000000;fill-opacity:1;stroke:#000000;stroke-width:6.14;stroke-miterlimit:4;stroke-opacity:1;stroke-dasharray:none"
           sodipodi:nodetypes="csssssssc"
           id="pupil"
           d="M 193.76,524.70 C 193.76,529.38 191.84,534.03 188.52,537.34 185.22,540.65 180.58,542.57 175.89,542.57 171.21,542.57 166.58,540.65 163.26,537.34 159.97,534.03 158.03,529.38 158.03,524.70 158.03,520.03 159.97,515.38 163.26,512.07 166.58,508.76 171.21,506.84 175.89,506.84 180.58,506.84 185.22,508.76 188.52,512.07 191.84,515.38 193.76,520.03 193.76,524.70 Z" />
        <path
           style="fill:#ffffff;fill-opacity:1;stroke:none"
           id="glare"
           d="M 167.82,505.42 C 167.82,508.73 165.12,511.40 161.78,511.40 158.45,511.40 155.74,508.73 155.74,505.42 155.74,502.13 158.45,499.46 161.78,499.46 165.12,499.46 167.82,502.13 167.82,505.42 Z" />
      </g>
    </g>
  </g>
  <g
     style="stroke-width:4.36;stroke-miterlimit:4;stroke-dasharray:none"
     id="right-eye"
     transform="matrix(0.16,0,0,0.16,44.85,20.07)">
    <use
       id="use3959"
       x="0"
       y="0"
       width="250"
       height="250"
       xlink:href="#path3622"
       transform="matrix(-1,0,0,1,915.87,-3.77)" />
    <g
       id="g4015"
       clip-path="url(#clipPath4022)">
      <use
         style="stroke-width:4.36;stroke-miterlimit:4;stroke-dasharray:none"
         xlink:href="#g4403"
         height="1"
         width="1"
         y="0"
         x="0"
         id="right-lens"
         transform="translate(520.66,17.25)" />
    </g>
  </g>
  <path
     style="fill:#292929;fill-opacity:1;fill-rule:nonzero;stroke:#000000;stroke-width:1;stroke-miterlimit:4;stroke-opacity:1;stroke-dasharray:none"
     sodipodi:nodetypes="cczcczc"
     id="left-eye-brow"
     d="m 108.30551,68.856864 2.15449,2.891695 c -4.48337,4.29501 -11.928124,6.53829 -17.410254,8.290424 C 87.567616,81.791117 78.689322,84.427966 68.33,84.44 l -1.24,-1.53 c 12.772797,-1.53822 17.856272,-3.497203 25.675593,-6.135169 7.819317,-2.637966 9.477967,-4.102797 15.539917,-7.917967 z" />
  <g
     style="fill:#000000;fill-opacity:1;stroke:#000000;stroke-width:0.22;stroke-opacity:1"
     id="nose"
     transform="matrix(5.34,0,0,-6.08,109.88,129.78)">
    <path
       style="fill:#000000;fill-opacity:1;stroke:#000000;stroke-width:0.04;stroke-linecap:butt;stroke-linejoin:miter;stroke-miterlimit:4;stroke-opacity:1;stroke-dasharray:none"
       id="nose-path"
       d="M 0.44,0.03 0.90,-0.19 C 0.89,-2.30 2.21,-3.43 3.56,-3.43 4.92,-3.43 6.23,-2.38 6.27,-0.18 L 6.66,0.01 C 6.70,-2.48 5.05,-3.54 3.56,-3.54 2.08,-3.54 0.48,-2.30 0.44,0.04 Z" />
  </g>
  <path
     style="fill:#000000;fill-opacity:1;stroke:#000000;stroke-width:0.62;stroke-linecap:butt;stroke-linejoin:miter;stroke-miterlimit:4;stroke-opacity:1;stroke-dasharray:none"
     id="mouth-path"
     d="M 83.85,187.32 C 83.85,187.32 79.81,161.41 130.10,161.05 180.52,160.42 175.69,188.27 175.69,188.27 L 176.34,190.89 C 176.34,190.89 176.95,185.06 130.76,185.33 87.49,185.82 83.08,189.53 83.08,189.53 L 83.85,187.32 Z" />
  <use
     id="right-eye-brow"
     x="0"
     y="0"
     width="250"
     height="250"
     xlink:href="#left-eye-brow"
     transform="matrix(-1.00,-0.00,-0.00,1.00,255.06,0.27)" />
</svg>
