<?xml version="1.0" encoding="UTF-8" standalone="no"?>
<!-- Created with Inkscape (http://www.inkscape.org/) -->

<svg
   xmlns:dc="http://purl.org/dc/elements/1.1/"
   xmlns:cc="http://creativecommons.org/ns#"
   xmlns:rdf="http://www.w3.org/1999/02/22-rdf-syntax-ns#"
   xmlns:svg="http://www.w3.org/2000/svg"
   xmlns="http://www.w3.org/2000/svg"
   xmlns:xlink="http://www.w3.org/1999/xlink"
   xmlns:sodipodi="http://sodipodi.sourceforge.net/DTD/sodipodi-0.dtd"
   xmlns:inkscape="http://www.inkscape.org/namespaces/inkscape"
   version="1.1"
   width="250"
   height="250"
   id="emoticon-front-view"
   inkscape:version="0.47 r22583"
   sodipodi:docname="front-v1-a0-p1.svg">
  <metadata
     id="metadata47">
    <rdf:RDF>
      <cc:Work
         rdf:about="">
        <dc:format>image/svg+xml</dc:format>
        <dc:type
           rdf:resource="http://purl.org/dc/dcmitype/StillImage" />
      </cc:Work>
    </rdf:RDF>
  </metadata>
  <sodipodi:namedview
     pagecolor="#ffffff"
     bordercolor="#666666"
     borderopacity="1"
     objecttolerance="10"
     gridtolerance="10"
     guidetolerance="10"
     inkscape:pageopacity="0"
     inkscape:pageshadow="2"
     inkscape:window-width="1210"
     inkscape:window-height="808"
     id="namedview45"
     showgrid="false"
     inkscape:zoom="0.944"
     inkscape:cx="195.60046"
     inkscape:cy="81.89205"
     inkscape:window-x="0"
     inkscape:window-y="24"
     inkscape:window-maximized="0"
     inkscape:current-layer="emoticon-front-view"
     showguides="true"
     inkscape:guide-bbox="true" />
  <defs
     id="defs4">
    <inkscape:perspective
       sodipodi:type="inkscape:persp3d"
       inkscape:vp_x="0 : 125 : 1"
       inkscape:vp_y="0 : 1000 : 0"
       inkscape:vp_z="250 : 125 : 1"
       inkscape:persp3d-origin="125 : 83.333333 : 1"
       id="perspective49" />
    <linearGradient
       id="linearGradient5745">
      <stop
         id="stop5747"
         style="stop-color:#f4f015;stop-opacity:1"
         offset="0" />
      <stop
         id="stop5749"
         style="stop-color:#f68715;stop-opacity:1"
         offset="1" />
    </linearGradient>
    <linearGradient
       id="linearGradient2823">
      <stop
         id="stop2825"
         style="stop-color:#000000;stop-opacity:1"
         offset="0" />
      <stop
         id="stop2827"
         style="stop-color:#662e91;stop-opacity:1"
         offset="1" />
    </linearGradient>
    <clipPath
       id="clipPath2967">
      <use
         transform="translate(-57.142857,-22.857143)"
         id="use2969"
         x="0"
         y="0"
         width="1"
         height="1"
         xlink:href="#path3622" />
    </clipPath>
    <linearGradient
       id="linearGradient2823-8">
      <stop
         id="stop2825-6"
         style="stop-color:#000000;stop-opacity:1"
         offset="0" />
      <stop
         id="stop2827-2"
         style="stop-color:#662e91;stop-opacity:1"
         offset="1" />
    </linearGradient>
    <clipPath
       id="clipPath4022">
      <use
         id="use4024"
         x="0"
         y="0"
         width="1"
         height="1"
         xlink:href="#use3959" />
    </clipPath>
    <linearGradient
       x1="107.14286"
       y1="488.07648"
       x2="138.57143"
       y2="606.46576"
       id="linearGradient4072"
       xlink:href="#linearGradient2823-8"
       gradientUnits="userSpaceOnUse"
       gradientTransform="translate(578.25587,-3.178734)" />
    <linearGradient
       x1="107.14286"
       y1="488.07648"
       x2="138.57143"
       y2="606.46576"
       id="irisGradient"
       xlink:href="#linearGradient2823"
       gradientUnits="userSpaceOnUse"
       gradientTransform="translate(0.59822,-24.130798)" />
    <radialGradient
       cx="-15.37231"
       cy="2.7052789"
       r="1"
       fx="-15.37231"
       fy="2.7052789"
       id="radialGradient5694"
       xlink:href="#linearGradient5745"
       gradientUnits="userSpaceOnUse"
       gradientTransform="matrix(98.09029,121.52782,-104.45905,83.940949,1881.611,1722.6769)"
       spreadMethod="pad" />
    <linearGradient
       x1="107.14286"
       y1="488.07648"
       x2="138.57143"
       y2="606.46576"
       id="linearGradient4074-2"
       xlink:href="#linearGradient2823-9"
       gradientUnits="userSpaceOnUse"
       gradientTransform="translate(0.59822,-24.130798)" />
    <linearGradient
       id="linearGradient2823-9">
      <stop
         id="stop2825-2"
         style="stop-color:#000000;stop-opacity:1"
         offset="0" />
      <stop
         id="stop2827-4"
         style="stop-color:#662e91;stop-opacity:1"
         offset="1" />
    </linearGradient>
  </defs>
  <g
     id="head">
    <path
       d="m 37.090251,139.47544 c -0.235014,51.92966 40.915861,88.48211 91.385019,88.48211 l 0,0 c 50.45742,0 92.85386,-42.11592 91.36741,-94.02799 l 0,0 C 217.9332,66.687122 154.27978,28.463883 127.67623,22.777297 l 0,0 C 99.080952,30.591957 37.436895,65.520494 37.090245,139.47544"
       id="path164"
       style="fill:url(#radialGradient5694);fill-opacity:1;stroke:#000000;stroke-width:0.99999994;stroke-opacity:1" />
    <g
       id="head-glare">
      <path
         d="M 65.387082,67.613889 C 40.819725,98.001634 40.571256,141.9744 40.571256,150.07449 l 0,0 c 0,7.69632 9.957389,27.97759 8.249165,20.48625 l 0,0 c -4.199123,-18.43018 -3.099649,-29.26342 -3.099649,-35.24531 l 0,0 c 0,-4.08731 0.627385,-8.25538 3.329483,-24.55493 l 0,0 C 51.746142,94.460954 58.852351,84.988074 72.841148,65.762796 l 0,0 C 86.829943,46.518884 117.3854,29.486343 126.26817,28.734725 l 0,0 c 8.87655,-0.732983 31.0586,11.963776 31.0586,11.963776 l 0,0 c 0,0 12.42966,5.130882 -3.31706,-3.838844 l 0,0 C 138.27542,27.896143 126.04454,24.585295 126.04454,24.585295 l 0,0 c 0,0 -32.245049,7.888886 -60.657458,43.028594"
         id="path184"
         style="fill:#f9ee37;fill-opacity:1;stroke:none" />
      <path
         d="m 126.498,24.820099 c 0,0 10.87051,1.087051 26.26316,10.665525 15.23735,9.485299 4.95074,3.130708 4.95074,3.130708 0,0 -22.08888,-12.709182 -30.98407,-12.261938 C 111.87561,27.081165 77.996877,52.4312 66.412016,67.910809 52.106422,87.030487 46.099688,106.15016 43.397589,122.44971 c -2.702099,16.30578 -2.826333,33.23893 -2.826333,25.53018 0,-8.10008 0.925546,-52.631906 26.145134,-82.454381 C 93.439213,33.926482 126.498,24.820099 126.498,24.820099"
         id="path196"
         style="fill:#ffffff;fill-opacity:1;fill-rule:nonzero;stroke:none" />
    </g>
  </g>
  <g
     transform="matrix(0.16275665,0,0,0.16275665,61.417907,19.460715)"
     id="left-eye"
     style="stroke-width:4.35711336;stroke-miterlimit:4;stroke-dasharray:none">
    <path
       d="m 267.44548,531.04049 c 36.65395,36.06294 32.40123,56.07532 9.90251,59.42335 -50.41853,-13.69549 -131.64171,-13.98418 -168.08186,-1.1167 -48.932359,11.86465 -47.690095,-36.83855 -13.45997,-58.72541 53.78987,-37.51831 137.9221,-38.89848 171.63932,0.41876 z"
       id="path3622"
       style="fill:#ffffff;stroke:#000000;stroke-width:6.14414215;stroke-miterlimit:4;stroke-opacity:1;stroke-dasharray:none"
       sodipodi:nodetypes="ccccc" />
    <g
       transform="translate(57.142857,22.857143)"
       clip-path="url(#clipPath2967)"
       id="lens"
       style="stroke-width:4.35711336;stroke-miterlimit:4;stroke-dasharray:none">
      <g
         id="g4403">
        <path
           d="m 193.45537,522.51711 c 0,14.95997 -5.85054,29.82782 -15.89992,40.40611 -10.04938,10.57829 -24.17383,16.73674 -38.3858,16.73674 -14.21197,0 -28.33642,-6.15845 -38.3858,-16.73674 -10.049379,-10.57829 -15.899918,-25.44614 -15.899918,-40.40611 0,-14.95997 5.850539,-29.82782 15.899918,-40.40611 10.04938,-10.57829 24.17383,-16.73674 38.3858,-16.73674 14.21197,0 28.33642,6.15845 38.3858,16.73674 10.04938,10.57829 15.89992,25.44614 15.89992,40.40611 z"
           id="iris"
           style="fill:url(#irisGradient);fill-opacity:1;stroke:#000000;stroke-width:6.14414215;stroke-miterlimit:4;stroke-opacity:1;stroke-dasharray:none" />
        <path
           d="m 156.88395,525.51713 c 0,4.67671 -1.92059,9.32571 -5.22657,12.6336 -3.30597,3.30789 -7.95386,5.23389 -12.63057,5.23389 -4.67671,0 -9.3246,-1.926 -12.63057,-5.23389 -3.30598,-3.30789 -5.22657,-7.95689 -5.22657,-12.6336 0,-4.67671 1.92059,-9.32571 5.22657,-12.6336 3.30597,-3.3079 7.95386,-5.23389 12.63057,-5.23389 4.67671,0 9.3246,1.92599 12.63057,5.23389 3.30598,3.30789 5.22657,7.95689 5.22657,12.6336 z"
           id="pupil"
           style="fill:#000000;fill-opacity:1;stroke:#000000;stroke-width:6.14414215;stroke-miterlimit:4;stroke-opacity:1;stroke-dasharray:none" />
        <path
           d="m 127.31576,519.25508 c 0,6.37624 -5.23119,11.54512 -11.6842,11.54512 -6.45301,0 -11.6842,-5.16888 -11.6842,-11.54512 0,-6.37612 5.23119,-11.54512 11.6842,-11.54512 6.45301,0 11.6842,5.169 11.6842,11.54512 z"
           id="glare"
           style="fill:#ffffff;fill-opacity:1;stroke:none" />
      </g>
    </g>
  </g>
  <g
     transform="matrix(0.16275665,0,0,0.16275665,44.845092,20.074523)"
     id="right-eye"
     style="stroke-width:4.35711336;stroke-miterlimit:4;stroke-dasharray:none">
    <use
       transform="matrix(-1,0,0,1,915.87172,-3.7713235)"
       id="use3959"
       x="0"
       y="0"
       width="250"
       height="250"
       xlink:href="#path3622" />
    <g
       clip-path="url(#clipPath4022)"
       id="g4015">
      <use
         transform="translate(573.63815,19.489871)"
         id="right-lens"
         style="stroke-width:4.35711336;stroke-miterlimit:4;stroke-dasharray:none"
         x="0"
         y="0"
         width="1"
         height="1"
         xlink:href="#g4403" />
    </g>
  </g>
  <path
     d="m 112.77795,91.916127 -0.87188,1.102149 C 106.52953,86.092881 100.90453,82.87224 91.358457,81.990416 81.812379,81.108592 70.258834,83.413262 63.560936,90.874807 l -1.030838,-0.849094 c 6.965884,-7.411718 17.867122,-11.263844 28.829246,-9.783627 10.962126,1.480217 16.453956,5.084578 21.418606,11.674041 z"
     id="left-eye-brow"
     style="fill:#292929;fill-opacity:1;fill-rule:nonzero;stroke:#000000;stroke-width:1;stroke-miterlimit:4;stroke-opacity:1;stroke-dasharray:none"
     sodipodi:nodetypes="cczcczc" />
  <g
     transform="matrix(5.3394566,0,0,-6.0795874,109.87925,139.78513)"
     id="nose"
     style="fill:#000000;fill-opacity:1;stroke:#000000;stroke-width:0.21939383;stroke-opacity:1">
    <path
       d="M 0.10521486,0.169411 0.42285413,-0.16149051 C 0.41633249,-2.7896278 2.207,-3.427 3.563,-3.427 c 1.356,0 3.1517848,0.8724886 2.9653866,3.38051362 L 6.8258912,0.30802 C 7.1407191,-2.627619 5.049,-3.535 3.563,-3.535 c -1.488,0 -3.49104006,0.537757 -3.45778514,3.704411 z"
       id="nose-path"
       style="fill:#000000;fill-opacity:1;stroke:#000000;stroke-width:0.03949089;stroke-linecap:butt;stroke-linejoin:miter;stroke-miterlimit:4;stroke-opacity:1;stroke-dasharray:none"
       sodipodi:nodetypes="ccsccsc" />
  </g>
  <use
     transform="matrix(-0.99977181,-0.02136184,-0.02136184,0.99977181,255.63091,2.7344772)"
     id="right-eye-brow"
     x="0"
     y="0"
     width="250"
     height="250"
     xlink:href="#left-eye-brow" />
  <path
     d="m 71.340015,168.91493 c 0,0 18.364006,31.41629 56.512725,30.69784 42.09088,-0.79269 57.12115,-37.36634 57.12115,-37.36634 l -1.4836,5.89763 c 0,0 -16.95475,33.13208 -56.17502,34.09111 -38.90701,0.15401 -54.693413,-29.08966 -54.693413,-29.08966 l -1.281842,-4.23058 z"
     id="mouth-path"
     style="fill:#000000;fill-opacity:1;stroke:#000000;stroke-width:0.62499994;stroke-linecap:butt;stroke-linejoin:miter;stroke-miterlimit:4;stroke-opacity:1;stroke-dasharray:none"
     sodipodi:nodetypes="csccccc" />
</svg>
