<?xml version="1.0" encoding="UTF-8" standalone="no"?>
<!-- Created with Inkscape (http://www.inkscape.org/) -->

<svg
   xmlns:svg="http://www.w3.org/2000/svg"
   xmlns="http://www.w3.org/2000/svg"
   xmlns:xlink="http://www.w3.org/1999/xlink"
   version="1.1"
   width="250"
   height="250"
   id="emoticon-front-view">
  <defs
     id="defs4">
    <clipPath
       id="clipPath788">
      <path
         d="m 146.741,393.652 c -0.019,-3.921 1.43,-7.546 4.078,-10.206 l 0,0 c 2.815,-2.827 6.712,-4.386 10.975,-4.386 l 0,0 c 4.009,0 7.94,1.676 10.778,4.596 l 0,0 c 2.871,2.955 4.39,6.837 4.273,10.929 l 0,0 c -0.324,11.418 -11.259,17.546 -15.174,18.461 l 0,0 c -5.212,-1.475 -14.874,-7.365 -14.93,-19.394"
         id="path790" />
    </clipPath>
    <radialGradient
       cx="0"
       cy="0"
       r="1"
       fx="0"
       fy="0"
       id="radialGradient796"
       gradientUnits="userSpaceOnUse"
       gradientTransform="matrix(17.528091,0,0,-17.528091,157.46924,401.14355)"
       spreadMethod="pad">
      <stop
         id="stop798"
         style="stop-color:#ffffff;stop-opacity:1"
         offset="0" />
      <stop
         id="stop800"
         style="stop-color:#ffffff;stop-opacity:1"
         offset="0.08665959" />
      <stop
         id="stop802"
         style="stop-color:#e3e4e6;stop-opacity:1"
         offset="0.31109664" />
      <stop
         id="stop804"
         style="stop-color:#e3e4e6;stop-opacity:1"
         offset="0.51161009" />
      <stop
         id="stop806"
         style="stop-color:#9da2a7;stop-opacity:1"
         offset="0.96569574" />
      <stop
         id="stop808"
         style="stop-color:#9da2a7;stop-opacity:1"
         offset="1" />
    </radialGradient>
    <clipPath
       id="clipPath816">
      <path
         d="M 0,792 612,792 612,0 0,0 0,792 z"
         id="path818" />
    </clipPath>
    <radialGradient
       cx="155.93687"
       cy="402.90732"
       r="15.055237"
       fx="155.93687"
       fy="402.90732"
       id="radialGradient3417"
       xlink:href="#radialGradient796"
       gradientUnits="userSpaceOnUse"
       gradientTransform="matrix(0.71058726,-1.1014105,0.94845148,0.61190419,-336.8546,330.00688)" />
  </defs>
  <g
     transform="matrix(5.9412042,0,0,-5.9412042,-841.55861,2473.8377)"
     id="g4966">
    <g
       id="g784">
      <g
         clip-path="url(#clipPath788)"
         id="g786"
         style="fill:url(#radialGradient3417);fill-opacity:1">
        <path
           d="m 146.741,393.652 c -0.019,-3.921 1.43,-7.546 4.078,-10.206 l 0,0 c 2.815,-2.827 6.712,-4.386 10.975,-4.386 l 0,0 c 4.009,0 7.94,1.676 10.778,4.596 l 0,0 c 2.871,2.955 4.39,6.837 4.273,10.929 l 0,0 c -0.324,11.418 -11.259,17.546 -15.174,18.461 l 0,0 c -5.212,-1.475 -14.874,-7.365 -14.93,-19.394"
           id="path810"
           style="fill:url(#radialGradient3417);fill-opacity:1;stroke:none" />
      </g>
    </g>
    <g
       id="g812">
      <g
         clip-path="url(#clipPath816)"
         id="g814">
        <g
           transform="translate(161.6812,412.5283)"
           id="g820">
          <path
             d="m 0,0 c -5.111,-1.497 -14.387,-7.242 -14.441,-18.879 -0.018,-3.786 1.378,-7.285 3.932,-9.85 2.721,-2.733 6.493,-4.239 10.621,-4.239 3.878,0 7.676,1.62 10.422,4.446 2.776,2.856 4.243,6.609 4.13,10.566 C 14.35,-6.943 3.911,-0.983 0,0 m -0.024,1.032 c 4.528,-0.969 15.361,-7.49 15.688,-18.96 0.252,-8.854 -6.964,-16.04 -15.552,-16.04 -8.59,0 -15.594,6.236 -15.553,15.094 0.058,12.616 10.549,18.573 15.417,19.906"
             id="path822"
             style="fill:#6d3d94;fill-opacity:1;fill-rule:nonzero;stroke:none" />
        </g>
        <g
           transform="translate(151.9888,387.791)"
           id="g824">
          <path
             d="m 0,0 0.837,-0.391 c 3.582,-1.44 5.56,-1.15 9.423,-1.15 3.865,0 5.963,-0.232 8.721,1.098 l 0.815,0.39 C 17.445,-4.173 14.497,-1.732 10.26,-1.732 6.022,-1.732 3.652,-2.064 0,0"
             id="path826"
             style="fill:#6d3d94;fill-opacity:1;fill-rule:nonzero;stroke:none" />
        </g>
        <g
           transform="translate(151.9888,387.791)"
           id="g828">
          <path
             d="m 0,0 0.837,-0.391 c 3.582,-1.44 5.56,-1.15 9.423,-1.15 3.865,0 5.963,-0.232 8.721,1.098 l 0.815,0.39 C 17.445,-4.173 14.497,-1.732 10.26,-1.732 6.022,-1.732 3.652,-2.064 0,0 z"
             id="path830"
             style="fill:none;stroke:#6d3d94;stroke-width:0.10519752;stroke-linecap:butt;stroke-linejoin:miter;stroke-miterlimit:4;stroke-opacity:1;stroke-dasharray:none" />
        </g>
      </g>
    </g>
    <g
       transform="translate(161.1455,412.4365)"
       id="g1220">
      <path
         d="m 0,0 c 0,0 1.749,-0.175 4.228,-1.717 2.453,-1.527 0.798,-0.504 0.798,-0.504 0,0 -3.557,2.046 -4.989,1.975 -2.391,-0.117 -7.845,-4.198 -9.71,-6.692 -2.302,-3.078 -3.27,-6.155 -3.705,-8.779 -0.435,-2.625 -0.455,-5.351 -0.455,-4.11 0,1.303 0.149,8.473 4.21,13.274 C -5.322,-1.466 0,0 0,0"
         id="path1222"
         style="fill:#ffffff;fill-opacity:1;fill-rule:nonzero;stroke:none" />
    </g>
    <g
       transform="translate(152.93927,399.5137)"
       id="g1224"
       style="fill:#6d3d94;fill-opacity:1;stroke:#6d3d94;stroke-width:0.10940543;stroke-miterlimit:4;stroke-opacity:1;stroke-dasharray:none">
      <path
         d="m 0,0 0.33,-0.1 c 0.828,-0.958 2.149,-1.446 3.671,-1.446 1.522,0 2.844,0.488 3.677,1.446 L 8,0 C 7.073,-1.054 5.67,-1.595 4.001,-1.595 2.33,-1.595 0.928,-1.054 0,0"
         id="path1226"
         style="fill:#6d3d94;fill-opacity:1;fill-rule:nonzero;stroke:#6d3d94;stroke-width:0.10940543;stroke-miterlimit:4;stroke-opacity:1;stroke-dasharray:none" />
    </g>
    <g
       transform="translate(152.97347,401.168)"
       id="g1228"
       style="fill:#6d3d94;fill-opacity:1;stroke:#6d3d94;stroke-width:0.10940543;stroke-miterlimit:4;stroke-opacity:1;stroke-dasharray:none">
      <path
         d="m 0,0 0.33,-0.127 c 0.828,-1.223 2.149,-1.846 3.672,-1.846 1.522,0 2.844,0.623 3.676,1.846 L 8,0 C 7.074,-1.344 5.67,-2.035 4.002,-2.035 2.33,-2.035 0.928,-1.344 0,0"
         id="path1230"
         style="fill:#6d3d94;fill-opacity:1;fill-rule:nonzero;stroke:#6d3d94;stroke-width:0.10940543;stroke-miterlimit:4;stroke-opacity:1;stroke-dasharray:none" />
    </g>
    <g
       transform="translate(161.94703,399.5137)"
       id="g1232"
       style="fill:#6d3d94;fill-opacity:1;stroke:#6d3d94;stroke-width:0.10940543;stroke-miterlimit:4;stroke-opacity:1;stroke-dasharray:none">
      <path
         d="m 0,0 0.33,-0.1 c 0.828,-0.958 2.149,-1.446 3.671,-1.446 1.522,0 2.844,0.488 3.677,1.446 L 8,0 C 7.073,-1.054 5.67,-1.595 4.001,-1.595 2.33,-1.595 0.928,-1.054 0,0"
         id="path1234"
         style="fill:#6d3d94;fill-opacity:1;fill-rule:nonzero;stroke:#6d3d94;stroke-width:0.10940543;stroke-miterlimit:4;stroke-opacity:1;stroke-dasharray:none" />
    </g>
    <g
       transform="translate(161.98113,401.168)"
       id="g1236"
       style="fill:#6d3d94;fill-opacity:1;stroke:#6d3d94;stroke-width:0.10940543;stroke-miterlimit:4;stroke-opacity:1;stroke-dasharray:none">
      <path
         d="m 0,0 0.33,-0.127 c 0.828,-1.223 2.149,-1.846 3.672,-1.846 1.522,0 2.844,0.623 3.676,1.846 L 8,0 C 7.074,-1.344 5.67,-2.035 4.002,-2.035 2.33,-2.035 0.928,-1.344 0,0"
         id="path1238"
         style="fill:#6d3d94;fill-opacity:1;fill-rule:nonzero;stroke:#6d3d94;stroke-width:0.10940543;stroke-miterlimit:4;stroke-opacity:1;stroke-dasharray:none" />
    </g>
    <g
       transform="translate(157.9961,394.6328)"
       id="g1240">
      <path
         d="m 0,0 0.294,-0.222 c 0.736,-2.123 1.913,-3.205 3.269,-3.205 1.356,0 2.532,1.082 3.275,3.205 L 7.124,0 C 6.299,-2.335 5.049,-3.535 3.563,-3.535 2.075,-3.535 0.826,-2.335 0,0"
         id="path1242"
         style="fill:#292929;fill-opacity:1;fill-rule:nonzero;stroke:none" />
    </g>
    <g
       transform="translate(157.9961,394.6328)"
       id="g1244"
       style="fill:#6d3d94;fill-opacity:1;stroke-width:0.03366321;stroke-miterlimit:4;stroke-dasharray:none">
      <path
         d="m 0,0 0.294,-0.222 c 0.736,-2.123 1.913,-3.205 3.269,-3.205 1.356,0 2.532,1.082 3.275,3.205 L 7.124,0 C 6.299,-2.335 5.049,-3.535 3.563,-3.535 2.075,-3.535 0.826,-2.335 0,0 z"
         id="path1246"
         style="fill:#6d3d94;fill-opacity:1;stroke:#6d3d94;stroke-width:0.03366321;stroke-linecap:butt;stroke-linejoin:miter;stroke-miterlimit:4;stroke-opacity:1;stroke-dasharray:none" />
    </g>
  </g>
</svg>
